<?xml version="1.0" standalone="no"?>
<!DOCTYPE svg PUBLIC "-//W3C//DTD SVG 20010904//EN"
 "http://www.w3.org/TR/2001/REC-SVG-20010904/DTD/svg10.dtd">
<svg version="1.0" xmlns="http://www.w3.org/2000/svg"
 width="300.000000pt" height="300.000000pt" viewBox="0 0 300.000000 300.000000"
 preserveAspectRatio="xMidYMid meet">
<metadata>
Created by potrace 1.14, written by Peter Selinger 2001-2017
</metadata>
<g transform="translate(0.000000,300.000000) scale(0.100000,-0.100000)"
fill="#000000" stroke="none">
<path d="M1214 2977 c-11 -12 -35 -33 -54 -47 -18 -14 -38 -30 -44 -35 -6 -6
-29 -24 -51 -42 -37 -28 -58 -72 -80 -163 0 -3 -8 -27 -17 -55 -9 -27 -53
-165 -98 -305 -45 -140 -105 -329 -135 -420 -29 -91 -79 -246 -110 -345 -32
-99 -77 -241 -102 -315 -24 -74 -46 -142 -48 -150 -2 -8 -27 -87 -56 -175 -28
-88 -52 -166 -52 -172 0 -7 -3 -13 -7 -13 -3 0 -6 -10 -7 -21 -3 -34 -17 -42
-75 -43 -51 -1 -57 -5 -160 -86 l-106 -85 -1 -253 0 -252 564 0 563 0 34 28
c18 15 35 30 36 35 2 4 10 7 18 7 8 0 14 4 14 8 0 4 22 25 50 45 l50 37 0 241
0 241 50 -4 c28 -1 50 0 50 3 0 3 21 3 48 -1 26 -3 59 -3 72 0 14 4 37 3 52
-1 16 -4 30 -3 34 2 4 6 11 6 20 -2 11 -9 14 -9 14 0 0 7 4 10 8 7 5 -3 34 -6
65 -7 31 -1 57 -5 57 -9 0 -4 -27 -28 -60 -54 -33 -26 -65 -53 -72 -60 -10
-10 -13 -72 -13 -262 l0 -249 561 -3 561 -2 102 80 101 80 0 258 0 258 -117
-1 c-65 0 -126 1 -135 3 -11 3 -23 24 -33 61 -9 31 -20 65 -25 76 -11 26 -65
197 -65 210 0 6 -3 15 -7 20 -6 11 -68 199 -73 225 -2 8 -13 42 -25 75 -12 33
-23 67 -25 75 -2 8 -10 35 -18 60 -71 215 -97 298 -99 315 -2 11 -6 25 -9 30
-6 10 -31 81 -35 100 -1 6 -26 82 -54 170 -175 540 -220 683 -220 696 0 8 -4
19 -10 25 -5 5 -11 18 -13 29 -2 11 -13 50 -26 88 l-23 67 -371 -1 c-369 0
-372 0 -393 -22z m323 -1490 c28 -89 49 -164 47 -166 -6 -6 -204 -4 -210 2 -3
3 3 32 14 64 10 32 34 106 53 165 19 58 36 104 39 101 3 -2 28 -77 57 -166z"/>
</g>
</svg>
